<svg width="20" height="20" viewBox="0 0 20 20" fill="none" xmlns="http://www.w3.org/2000/svg">
<rect width="20" height="20" fill="#F5F5F5"/>
<g id="&#236;&#153;&#132;&#236;&#132;&#177;&#235;&#179;&#184;">
<path d="M-1926 -5066C-1926 -5067.1 -1925.1 -5068 -1924 -5068H11378C11379.1 -5068 11380 -5067.1 11380 -5066V5390C11380 5391.1 11379.1 5392 11378 5392H-1924C-1925.1 5392 -1926 5391.1 -1926 5390V-5066Z" fill="#E1E1E1"/>
<path d="M-1924 -5068V-5067H11378V-5068V-5069H-1924V-5068ZM11380 -5066H11379V5390H11380H11381V-5066H11380ZM11378 5392V5391H-1924V5392V5393H11378V5392ZM-1926 5390H-1925V-5066H-1926H-1927V5390H-1926ZM-1924 5392V5391C-1924.55 5391 -1925 5390.55 -1925 5390H-1926H-1927C-1927 5391.66 -1925.66 5393 -1924 5393V5392ZM11380 5390H11379C11379 5390.55 11378.6 5391 11378 5391V5392V5393C11379.7 5393 11381 5391.66 11381 5390H11380ZM11378 -5068V-5067C11378.6 -5067 11379 -5066.55 11379 -5066H11380H11381C11381 -5067.66 11379.7 -5069 11378 -5069V-5068ZM-1924 -5068V-5069C-1925.66 -5069 -1927 -5067.66 -1927 -5066H-1926H-1925C-1925 -5066.55 -1924.55 -5067 -1924 -5067V-5068Z" fill="black" fill-opacity="0.1"/>
<g id="iPhone 13 mini - 38" clip-path="url(#clip0_84_2)">
<rect width="375" height="812" transform="translate(-200 -344)" fill="#F8FAFC"/>
<g id="Frame 2087327108">
<g id="Group 1000008878">
<g id="Frame 2087327116">
<g id="Seats Info">
<g id="Users">
<path id="Vector" d="M13.3334 17.5V15.8333C13.3334 14.9493 12.9822 14.1014 12.3571 13.4763C11.732 12.8512 10.8841 12.5 10.0001 12.5H5.00008C4.11603 12.5 3.26818 12.8512 2.64306 13.4763C2.01794 14.1014 1.66675 14.9493 1.66675 15.8333V17.5" stroke="#00A49D" stroke-width="1.66667" stroke-linecap="round" stroke-linejoin="round"/>
<path id="Vector_2" d="M13.3333 2.60669C14.048 2.792 14.6811 3.20941 15.133 3.79341C15.5849 4.37741 15.8301 5.09493 15.8301 5.83336C15.8301 6.57178 15.5849 7.28931 15.133 7.8733C14.6811 8.4573 14.048 8.87471 13.3333 9.06002" stroke="#00A49D" stroke-width="1.66667" stroke-linecap="round" stroke-linejoin="round"/>
<path id="Vector_3" d="M18.3333 17.5001V15.8334C18.3327 15.0948 18.0869 14.3774 17.6344 13.7937C17.1819 13.2099 16.5484 12.793 15.8333 12.6084" stroke="#00A49D" stroke-width="1.66667" stroke-linecap="round" stroke-linejoin="round"/>
<path id="Vector_4" d="M7.50008 9.16667C9.34103 9.16667 10.8334 7.67428 10.8334 5.83333C10.8334 3.99238 9.34103 2.5 7.50008 2.5C5.65913 2.5 4.16675 3.99238 4.16675 5.83333C4.16675 7.67428 5.65913 9.16667 7.50008 9.16667Z" stroke="#00A49D" stroke-width="1.66667" stroke-linecap="round" stroke-linejoin="round"/>
</g>
</g>
</g>
</g>
</g>
</g>
</g>
<defs>
<clipPath id="clip0_84_2">
<rect width="375" height="812" fill="white" transform="translate(-200 -344)"/>
</clipPath>
</defs>
</svg>
